<svg width="313" height="52" viewBox="0 0 313 52" fill="none" xmlns="http://www.w3.org/2000/svg">
<path d="M26.5 1.59045L31.975 18.1227L32.0885 18.4656H32.4496H50.1402L35.8365 28.6617L35.5361 28.8759L35.652 29.2261L41.1207 45.7392L26.7902 35.524L26.5 35.3171L26.2098 35.524L11.8793 45.7392L17.348 29.2261L17.4639 28.8759L17.1635 28.6617L2.85982 18.4656H20.5504H20.9115L21.025 18.1227L26.5 1.59045Z" fill="#FF0043" stroke="white"/>
<path d="M91.5 1.59045L96.975 18.1227L97.0885 18.4656H97.4496H115.14L100.836 28.6617L100.536 28.8759L100.652 29.2261L106.121 45.7392L91.7902 35.524L91.5 35.3171L91.2098 35.524L76.8793 45.7392L82.348 29.2261L82.4639 28.8759L82.1635 28.6617L67.8598 18.4656H85.5504H85.9115L86.025 18.1227L91.5 1.59045Z" fill="white" fill-opacity="0.15" stroke="white"/>
<path d="M156.5 1.59045L161.975 18.1227L162.088 18.4656H162.45H180.14L165.836 28.6617L165.536 28.8759L165.652 29.2261L171.121 45.7392L156.79 35.524L156.5 35.3171L156.21 35.524L141.879 45.7392L147.348 29.2261L147.464 28.8759L147.164 28.6617L132.86 18.4656H150.55H150.911L151.025 18.1227L156.5 1.59045Z" fill="white" fill-opacity="0.15" stroke="white"/>
<path d="M221.5 1.59045L226.975 18.1227L227.088 18.4656H227.45H245.14L230.836 28.6617L230.536 28.8759L230.652 29.2261L236.121 45.7392L221.79 35.524L221.5 35.3171L221.21 35.524L206.879 45.7392L212.348 29.2261L212.464 28.8759L212.164 28.6617L197.86 18.4656H215.55H215.911L216.025 18.1227L221.5 1.59045Z" fill="white" fill-opacity="0.15" stroke="white"/>
<path d="M286.5 1.59045L291.975 18.1227L292.088 18.4656H292.45H310.14L295.836 28.6617L295.536 28.8759L295.652 29.2261L301.121 45.7392L286.79 35.524L286.5 35.3171L286.21 35.524L271.879 45.7392L277.348 29.2261L277.464 28.8759L277.164 28.6617L262.86 18.4656H280.55H280.911L281.025 18.1227L286.5 1.59045Z" fill="white" fill-opacity="0.15" stroke="white"/>
</svg>
