<svg width="311" height="52" viewBox="0 0 311 52" fill="none" xmlns="http://www.w3.org/2000/svg">
<path d="M26.5 1.59045L31.975 18.1227L32.0885 18.4656H32.4496H50.1402L35.8365 28.6617L35.5361 28.8759L35.652 29.2261L41.1207 45.7392L26.7902 35.524L26.5 35.3171L26.2098 35.524L11.8793 45.7392L17.348 29.2261L17.4639 28.8759L17.1635 28.6617L2.85982 18.4656H20.5504H20.9115L21.025 18.1227L26.5 1.59045Z" fill="#FF0043" stroke="white"/>
<path d="M91 1.61804L96.3618 18.1201L96.4741 18.4656H96.8374H114.189L100.151 28.6644L99.8573 28.8779L99.9695 29.2234L105.331 45.7254L91.2939 35.5266L91 35.3131L90.7061 35.5266L76.6686 45.7254L82.0305 29.2234L82.1427 28.8779L81.8488 28.6644L67.8114 18.4656H85.1626H85.5259L85.6382 18.1201L91 1.61804Z" fill="#FF0043" stroke="white"/>
<path d="M155 1.61804L160.362 18.1201L160.474 18.4656H160.837H178.189L164.151 28.6644L163.857 28.8779L163.97 29.2234L169.331 45.7254L155.294 35.5266L155 35.3131L154.706 35.5266L140.669 45.7254L146.03 29.2234L146.143 28.8779L145.849 28.6644L131.811 18.4656H149.163H149.526L149.638 18.1201L155 1.61804Z" fill="#FF0043" stroke="white"/>
<path d="M219.5 1.59045L224.975 18.1227L225.088 18.4656H225.45H243.14L228.836 28.6617L228.536 28.8759L228.652 29.2261L234.121 45.7392L219.79 35.524L219.5 35.3171L219.21 35.524L204.879 45.7392L210.348 29.2261L210.464 28.8759L210.164 28.6617L195.86 18.4656H213.55H213.911L214.025 18.1227L219.5 1.59045Z" fill="#FF0043" stroke="white"/>
<path d="M284.5 1.59045L289.975 18.1227L290.088 18.4656H290.45H308.14L293.836 28.6617L293.536 28.8759L293.652 29.2261L299.121 45.7392L284.79 35.524L284.5 35.3171L284.21 35.524L269.879 45.7392L275.348 29.2261L275.464 28.8759L275.164 28.6617L260.86 18.4656H278.55H278.911L279.025 18.1227L284.5 1.59045Z" fill="#FF0043" stroke="white"/>
</svg>
