<svg width="312" height="52" viewBox="0 0 312 52" fill="none" xmlns="http://www.w3.org/2000/svg">
<path d="M26.5 1.59045L31.975 18.1227L32.0885 18.4656H32.4496H50.1402L35.8365 28.6617L35.5361 28.8759L35.652 29.2261L41.1207 45.7392L26.7902 35.524L26.5 35.3171L26.2098 35.524L11.8793 45.7392L17.348 29.2261L17.4639 28.8759L17.1635 28.6617L2.85982 18.4656H20.5504H20.9115L21.025 18.1227L26.5 1.59045Z" fill="#FF0043" stroke="white"/>
<path d="M91 1.61804L96.3618 18.1201L96.4741 18.4656H96.8374H114.189L100.151 28.6644L99.8573 28.8779L99.9695 29.2234L105.331 45.7254L91.2939 35.5266L91 35.3131L90.7061 35.5266L76.6686 45.7254L82.0305 29.2234L82.1427 28.8779L81.8488 28.6644L67.8114 18.4656H85.1626H85.5259L85.6382 18.1201L91 1.61804Z" fill="#FF0043" stroke="white"/>
<path d="M155.5 1.59045L160.975 18.1227L161.088 18.4656H161.45H179.14L164.836 28.6617L164.536 28.8759L164.652 29.2261L170.121 45.7392L155.79 35.524L155.5 35.3171L155.21 35.524L140.879 45.7392L146.348 29.2261L146.464 28.8759L146.164 28.6617L131.86 18.4656H149.55H149.911L150.025 18.1227L155.5 1.59045Z" fill="white" fill-opacity="0.15" stroke="white"/>
<path d="M220.5 1.59045L225.975 18.1227L226.088 18.4656H226.45H244.14L229.836 28.6617L229.536 28.8759L229.652 29.2261L235.121 45.7392L220.79 35.524L220.5 35.3171L220.21 35.524L205.879 45.7392L211.348 29.2261L211.464 28.8759L211.164 28.6617L196.86 18.4656H214.55H214.911L215.025 18.1227L220.5 1.59045Z" fill="white" fill-opacity="0.15" stroke="white"/>
<path d="M285.5 1.59045L290.975 18.1227L291.088 18.4656H291.45H309.14L294.836 28.6617L294.536 28.8759L294.652 29.2261L300.121 45.7392L285.79 35.524L285.5 35.3171L285.21 35.524L270.879 45.7392L276.348 29.2261L276.464 28.8759L276.164 28.6617L261.86 18.4656H279.55H279.911L280.025 18.1227L285.5 1.59045Z" fill="white" fill-opacity="0.15" stroke="white"/>
</svg>
